<svg xmlns="http://www.w3.org/2000/svg" version="1.1" xmlns:xlink="http://www.w3.org/1999/xlink" xmlns:svgjs="http://svgjs.dev/svgjs" width="1440" height="560" preserveAspectRatio="none" viewBox="0 0 1440 560"><g mask="url(&quot;#SvgjsMask1007&quot;)" fill="none"><path d="M376.6 591.61C568.46 554 652.53 68 954.09 64.24 1255.64 60.48 1380.42 241.4 1531.57 243.44" stroke="rgba(51,121,194,0.58)" stroke-width="2"></path><path d="M473.67 596.6C564.49 595.74 548.58 504.62 824.08 500.74 1099.58 496.86 1340.12 268.65 1524.9 265.54" stroke="rgba(51,121,194,0.58)" stroke-width="2"></path><path d="M138.23 641.16C321.44 636.15 454.18 377.42 818.73 368.44 1183.28 359.46 1317.86 120.44 1499.23 116.44" stroke="rgba(51,121,194,0.58)" stroke-width="2"></path><path d="M682.51 639.17C818.74 635.2 911.14 442.13 1186.87 432.22 1462.6 422.31 1551.64 197.49 1691.23 191.42" stroke="rgba(51,121,194,0.58)" stroke-width="2"></path><path d="M217.2 624.91C385.36 578.82 428.67 122.29 689.18 111.42 949.69 100.55 925.17 181.42 1161.16 181.42 1397.15 181.42 1513.85 111.61 1633.14 111.42" stroke="rgba(51,121,194,0.58)" stroke-width="2"></path></g><defs><mask id="SvgjsMask1007"><rect width="1440" height="560" fill="#ffffff"></rect></mask></defs></svg>