<svg width="276.306" xmlns="http://www.w3.org/2000/svg" height="308.26" id="screenshot-60f9dde9-6139-8004-8004-4ad59b789607" fill="none" version="1.1"><style>@font-face{font-family:&apos;ABeeZee&apos;;font-style:normal;font-weight:400;font-display:block;src:url(https://design.penpot.app/internal/gfonts/font/abeezee/v22/esDR31xSG-6AGleN2tukkIcH.woff2) format(&apos;woff2&apos;);unicode-range:U+0100-02AF, U+0304, U+0308, U+0329, U+1E00-1E9F, U+1EF2-1EFF, U+2020, U+20A0-20AB, U+20AD-20C0, U+2113, U+2C60-2C7F, U+A720-A7FF}@font-face{font-family:&apos;ABeeZee&apos;;font-style:normal;font-weight:400;font-display:block;src:url(https://design.penpot.app/internal/gfonts/font/abeezee/v22/esDR31xSG-6AGleN2tWkkA.woff2) format(&apos;woff2&apos;);unicode-range:U+0000-00FF, U+0131, U+0152-0153, U+02BB-02BC, U+02C6, U+02DA, U+02DC, U+0304, U+0308, U+0329, U+2000-206F, U+2074, U+20AC, U+2122, U+2191, U+2193, U+2212, U+2215, U+FEFF, U+FFFD}@font-face{font-family:&apos;Roboto&apos;;font-style:normal;font-weight:300;font-display:block;src:url(https://design.penpot.app/internal/gfonts/font/roboto/v30/KFOlCnqEu92Fr1MmSU5fCRc4EsA.woff2) format(&apos;woff2&apos;);unicode-range:U+0460-052F, U+1C80-1C88, U+20B4, U+2DE0-2DFF, U+A640-A69F, U+FE2E-FE2F}@font-face{font-family:&apos;Roboto&apos;;font-style:normal;font-weight:300;font-display:block;src:url(https://design.penpot.app/internal/gfonts/font/roboto/v30/KFOlCnqEu92Fr1MmSU5fABc4EsA.woff2) format(&apos;woff2&apos;);unicode-range:U+0301, U+0400-045F, U+0490-0491, U+04B0-04B1, U+2116}@font-face{font-family:&apos;Roboto&apos;;font-style:normal;font-weight:300;font-display:block;src:url(https://design.penpot.app/internal/gfonts/font/roboto/v30/KFOlCnqEu92Fr1MmSU5fCBc4EsA.woff2) format(&apos;woff2&apos;);unicode-range:U+1F00-1FFF}@font-face{font-family:&apos;Roboto&apos;;font-style:normal;font-weight:300;font-display:block;src:url(https://design.penpot.app/internal/gfonts/font/roboto/v30/KFOlCnqEu92Fr1MmSU5fBxc4EsA.woff2) format(&apos;woff2&apos;);unicode-range:U+0370-0377, U+037A-037F, U+0384-038A, U+038C, U+038E-03A1, U+03A3-03FF}@font-face{font-family:&apos;Roboto&apos;;font-style:normal;font-weight:300;font-display:block;src:url(https://design.penpot.app/internal/gfonts/font/roboto/v30/KFOlCnqEu92Fr1MmSU5fCxc4EsA.woff2) format(&apos;woff2&apos;);unicode-range:U+0102-0103, U+0110-0111, U+0128-0129, U+0168-0169, U+01A0-01A1, U+01AF-01B0, U+0300-0301, U+0303-0304, U+0308-0309, U+0323, U+0329, U+1EA0-1EF9, U+20AB}@font-face{font-family:&apos;Roboto&apos;;font-style:normal;font-weight:300;font-display:block;src:url(https://design.penpot.app/internal/gfonts/font/roboto/v30/KFOlCnqEu92Fr1MmSU5fChc4EsA.woff2) format(&apos;woff2&apos;);unicode-range:U+0100-02AF, U+0304, U+0308, U+0329, U+1E00-1E9F, U+1EF2-1EFF, U+2020, U+20A0-20AB, U+20AD-20C0, U+2113, U+2C60-2C7F, U+A720-A7FF}@font-face{font-family:&apos;Roboto&apos;;font-style:normal;font-weight:300;font-display:block;src:url(https://design.penpot.app/internal/gfonts/font/roboto/v30/KFOlCnqEu92Fr1MmSU5fBBc4.woff2) format(&apos;woff2&apos;);unicode-range:U+0000-00FF, U+0131, U+0152-0153, U+02BB-02BC, U+02C6, U+02DA, U+02DC, U+0304, U+0308, U+0329, U+2000-206F, U+2074, U+20AC, U+2122, U+2191, U+2193, U+2212, U+2215, U+FEFF, U+FFFD}@font-face{font-family:&apos;Roboto&apos;;font-style:normal;font-weight:400;font-display:block;src:url(https://design.penpot.app/internal/gfonts/font/roboto/v30/KFOmCnqEu92Fr1Mu72xKOzY.woff2) format(&apos;woff2&apos;);unicode-range:U+0460-052F, U+1C80-1C88, U+20B4, U+2DE0-2DFF, U+A640-A69F, U+FE2E-FE2F}@font-face{font-family:&apos;Roboto&apos;;font-style:normal;font-weight:400;font-display:block;src:url(https://design.penpot.app/internal/gfonts/font/roboto/v30/KFOmCnqEu92Fr1Mu5mxKOzY.woff2) format(&apos;woff2&apos;);unicode-range:U+0301, U+0400-045F, U+0490-0491, U+04B0-04B1, U+2116}@font-face{font-family:&apos;Roboto&apos;;font-style:normal;font-weight:400;font-display:block;src:url(https://design.penpot.app/internal/gfonts/font/roboto/v30/KFOmCnqEu92Fr1Mu7mxKOzY.woff2) format(&apos;woff2&apos;);unicode-range:U+1F00-1FFF}@font-face{font-family:&apos;Roboto&apos;;font-style:normal;font-weight:400;font-display:block;src:url(https://design.penpot.app/internal/gfonts/font/roboto/v30/KFOmCnqEu92Fr1Mu4WxKOzY.woff2) format(&apos;woff2&apos;);unicode-range:U+0370-0377, U+037A-037F, U+0384-038A, U+038C, U+038E-03A1, U+03A3-03FF}@font-face{font-family:&apos;Roboto&apos;;font-style:normal;font-weight:400;font-display:block;src:url(https://design.penpot.app/internal/gfonts/font/roboto/v30/KFOmCnqEu92Fr1Mu7WxKOzY.woff2) format(&apos;woff2&apos;);unicode-range:U+0102-0103, U+0110-0111, U+0128-0129, U+0168-0169, U+01A0-01A1, U+01AF-01B0, U+0300-0301, U+0303-0304, U+0308-0309, U+0323, U+0329, U+1EA0-1EF9, U+20AB}@font-face{font-family:&apos;Roboto&apos;;font-style:normal;font-weight:400;font-display:block;src:url(https://design.penpot.app/internal/gfonts/font/roboto/v30/KFOmCnqEu92Fr1Mu7GxKOzY.woff2) format(&apos;woff2&apos;);unicode-range:U+0100-02AF, U+0304, U+0308, U+0329, U+1E00-1E9F, U+1EF2-1EFF, U+2020, U+20A0-20AB, U+20AD-20C0, U+2113, U+2C60-2C7F, U+A720-A7FF}@font-face{font-family:&apos;Roboto&apos;;font-style:normal;font-weight:400;font-display:block;src:url(https://design.penpot.app/internal/gfonts/font/roboto/v30/KFOmCnqEu92Fr1Mu4mxK.woff2) format(&apos;woff2&apos;);unicode-range:U+0000-00FF, U+0131, U+0152-0153, U+02BB-02BC, U+02C6, U+02DA, U+02DC, U+0304, U+0308, U+0329, U+2000-206F, U+2074, U+20AC, U+2122, U+2191, U+2193, U+2212, U+2215, U+FEFF, U+FFFD}</style><g id="shape-60f9dde9-6139-8004-8004-4ad59b789607"><g id="shape-60f9dde9-6139-8004-8004-4ad577692eb7"><g class="fills" id="fills-60f9dde9-6139-8004-8004-4ad577692eb7"><rect rx="0" ry="0" width="276.306" height="308.26" class="frame-background"/></g><g class="frame-children"><g id="shape-60f9dde9-6139-8004-8004-4ad449efedb0"><g id="shape-60f9dde9-6139-8004-8004-4ad1d8170e2e"><g id="shape-60f9dde9-6139-8004-8004-4ace80aa74b2"><rect rx="5" ry="5" x=".306" y=".26" transform="rotate(-.14 113.29 133.28)" width="226" height="266" style="fill: rgb(249, 249, 249); fill-opacity: 1;" class="fills" id="fills-60f9dde9-6139-8004-8004-4ace80aa74b2"/></g><g id="shape-60f9dde9-6139-8004-8004-4ad0380c8d66"><g mask="url(#render-7-60f9dde9-6139-8004-8004-4acf779854dc-mask)" clip-path="url(#render-7-60f9dde9-6139-8004-8004-4acf779854dc-clip)" id="shape-60f9dde9-6139-8004-8004-4acfbd3e0d60"><defs><clipPath id="render-7-60f9dde9-6139-8004-8004-4acf779854dc-clip" class="mask-clip-path"><polyline points="22.04145059427549,18.47038850818376 56.04136018958923,18.391982446602356 56.117460190535866,51.391894700877515 22.117550595222127,51.470300762458805"/></clipPath><filter id="render-7-60f9dde9-6139-8004-8004-4acf779854dc-filter"><feFlood flood-color="#fff" result="FloodResult"/><feComposite in="FloodResult" in2="SourceGraphic" operator="in" result="comp"/></filter><mask width="34.076" maskUnits="userSpaceOnUse" height="33.078" class="mask-shape" x="22.041" id="render-7-60f9dde9-6139-8004-8004-4acf779854dc-mask" data-old-y="18.392" data-old-width="34.076" data-old-x="22.041" y="18.392" data-old-height="33.078"><g filter="url(#render-7-60f9dde9-6139-8004-8004-4acf779854dc-filter)"><g id="shape-60f9dde9-6139-8004-8004-4acf779854dc"><ellipse cx="39.079" cy="34.931" rx="17" ry="16.5" transform="rotate(-.14 39.075 34.938)" style="fill: rgb(177, 178, 181); fill-opacity: 1;" class="fills" id="fills-60f9dde9-6139-8004-8004-4acf779854dc"/></g></g></mask></defs><g id="shape-60f9dde9-6139-8004-8004-4acfb2dc3a28"><defs><pattern patternUnits="userSpaceOnUse" x="18.079" y="16.43" width="43" height="37" id="fill-0-render-9"><image id="fill-image-render-9-0" href="" preserveAspectRatio="xMidYMid slice" width="43" height="37" opacity="1"/></pattern></defs><rect rx="0" ry="0" x="18.079" y="16.43" transform="rotate(-.14 39.575 34.937)" width="43" height="37" fill="url(#fill-0-render-9)" class="fills" id="fills-60f9dde9-6139-8004-8004-4acfb2dc3a28"/></g></g><g transform="rotate(-.14 92.065 29.323)" class="text-container" id="shape-60f9dde9-6139-8004-8004-4acff5ea48f4"><defs><pattern patternUnits="userSpaceOnUse" x="61.067" y="23.309" width="61.828" height="12" id="fill-0-render-10-0"><rect width="61.828" height="12" style="fill: rgb(0, 0, 0); fill-opacity: 1;"/></pattern></defs><text x="61.067" y="35.309" dominant-baseline="ideographic" textLength="61.828" lengthAdjust="spacingAndGlyphs" style="text-transform: none; font-family: ABeeZee; letter-spacing: normal; font-style: normal; font-weight: 400; white-space: pre; font-size: 10px; text-decoration: none solid rgb(0, 0, 0); direction: ltr; fill: rgb(0, 0, 0); fill-opacity: 1;" class="fills" id="fills-60f9dde9-6139-8004-8004-4acff5ea48f4">James Taylor</text></g><g transform="rotate(-.14 96.093 42.315)" class="text-container" id="shape-60f9dde9-6139-8004-8004-4ad00babd9d9"><defs><pattern patternUnits="userSpaceOnUse" x="61.097" y="37.3" width="69.125" height="9" id="fill-0-render-11-0"><rect width="69.125" height="9" style="fill: rgb(0, 0, 0); fill-opacity: 0.5;"/></pattern></defs><text x="61.097" y="46.3" dominant-baseline="ideographic" textLength="69.125" lengthAdjust="spacingAndGlyphs" style="text-transform: none; font-family: ABeeZee; letter-spacing: normal; font-style: normal; font-weight: 400; white-space: pre; font-size: 8px; text-decoration: none solid rgba(0, 0, 0, 0.5); direction: ltr; fill: rgb(0, 0, 0); fill-opacity: 0.5;" class="fills" id="fills-60f9dde9-6139-8004-8004-4ad00babd9d9">Software Engineer</text></g></g><g id="shape-60f9dde9-6139-8004-8004-4ad1cbf9003d"><g id="shape-60f9dde9-6139-8004-8004-4ad19c373ef9"><g id="shape-60f9dde9-6139-8004-8004-4ad193bc780c"><g id="shape-60f9dde9-6139-8004-8004-4ad14d867e48"><g id="shape-60f9dde9-6139-8004-8004-4ad0dca9f5cf"><rect rx="2" ry="2" x="22.242" y="91.263" transform="rotate(-.14 112.229 105.282)" width="180" height="28" style="fill: rgb(229, 229, 229); fill-opacity: 1;" class="fills" id="fills-60f9dde9-6139-8004-8004-4ad0dca9f5cf"/></g><g id="shape-60f9dde9-6139-8004-8004-4ad0f3e89aa3"><g class="fills" id="fills-60f9dde9-6139-8004-8004-4ad0f3e89aa3"><rect rx="0" ry="0" x="27.243" y="98.441" width="15" height="15" transform="rotate(-.14 34.729 105.95)" class="frame-background"/></g><g class="frame-children"><g id="shape-60f9dde9-6139-8004-8004-4ad0f3e89aa5"><path d="M34.726 98.691a7.251 7.251 0 0 0-2.259 14.135c.363.066.495-.158.494-.351 0-.172-.007-.628-.012-1.233-2.016.443-2.445-.966-2.445-.966-.331-.837-.807-1.059-.807-1.059-.66-.448.049-.44.049-.44.727.049 1.112.744 1.112.744.649 1.107 1.699.784 2.111.598.065-.469.252-.789.458-.97-1.61-.18-3.304-.798-3.311-3.576a2.808 2.808 0 0 1 .742-1.947c-.075-.183-.325-.92.067-1.919 0 0 .608-.196 1.995.738a6.985 6.985 0 0 1 1.815-.248 6.991 6.991 0 0 1 1.815.24c1.382-.941 1.99-.748 1.99-.748.398.998.151 1.735.077 1.919.466.506.748 1.152.75 1.944.006 2.785-1.688 3.402-3.302 3.585.261.223.493.665.495 1.341.002.969-.005 1.751-.004 1.989 0 .194.131.419.499.348a7.251 7.251 0 0 0-2.329-14.124Z" fill-rule="evenodd" clip-rule="evenodd" style="fill: rgb(25, 25, 25); fill-opacity: 1;" class="fills" id="fills-60f9dde9-6139-8004-8004-4ad0f3e89aa5"/></g></g></g><g transform="rotate(-.14 86.73 105.837)" class="text-container" id="shape-60f9dde9-6139-8004-8004-4ad110b85437"><defs><pattern patternUnits="userSpaceOnUse" x="51.243" y="98.321" width="70.859" height="14" id="fill-0-render-19-0"><rect width="70.859" height="14" style="fill: rgb(0, 0, 0); fill-opacity: 0.8;"/></pattern></defs><text x="51.243" y="112.321" dominant-baseline="ideographic" textLength="70.859" lengthAdjust="spacingAndGlyphs" style="text-transform: none; font-family: Roboto; letter-spacing: normal; font-style: normal; font-weight: 300; white-space: pre; font-size: 12px; text-decoration: none solid rgba(0, 0, 0, 0.8); direction: ltr; fill: rgb(0, 0, 0); fill-opacity: 0.8;" class="fills" id="fills-60f9dde9-6139-8004-8004-4ad110b85437">Github Profile</text></g></g><g id="shape-60f9dde9-6139-8004-8004-4ad173acaed2"><g id="shape-60f9dde9-6139-8004-8004-4ad173acaed3"><rect rx="2" ry="2" x="22.32" y="125.263" transform="rotate(-.14 112.303 139.283)" width="180" height="28" style="fill: rgb(229, 229, 229); fill-opacity: 1;" class="fills" id="fills-60f9dde9-6139-8004-8004-4ad173acaed3"/></g><g id="shape-60f9dde9-6139-8004-8004-4ad173acaed4"><g class="fills" id="fills-60f9dde9-6139-8004-8004-4ad173acaed4"><rect rx="0" ry="0" x="27.322" y="132.441" width="15" height="15" transform="rotate(-.14 34.802 139.95)" class="frame-background"/></g><g class="frame-children"><g id="shape-60f9dde9-6139-8004-8004-4ad173acaed7"><path d="M34.804 132.691a7.25 7.25 0 0 0-7.232 7.267 7.25 7.25 0 0 0 4.974 6.868c.362.066.494-.158.494-.351-.001-.172-.008-.628-.013-1.233-2.016.443-2.444-.966-2.444-.966-.332-.837-.808-1.059-.808-1.059-.659-.448.049-.44.049-.44.728.049 1.112.744 1.112.744.649 1.107 1.699.784 2.112.598.064-.469.251-.789.458-.97-1.611-.18-3.305-.798-3.311-3.576a2.799 2.799 0 0 1 .742-1.947c-.075-.183-.326-.92.067-1.919 0 0 .608-.196 1.995.738a6.983 6.983 0 0 1 1.814-.248c.616.002 1.236.08 1.816.24 1.382-.941 1.99-.748 1.99-.748.398.998.151 1.735.077 1.919.466.506.747 1.152.749 1.944.007 2.785-1.687 3.402-3.302 3.585.261.223.494.665.495 1.341.003.969-.004 1.751-.004 1.989.001.194.132.419.499.348a7.252 7.252 0 0 0-2.329-14.124Z" fill-rule="evenodd" clip-rule="evenodd" style="fill: rgb(25, 25, 25); fill-opacity: 1;" class="fills" id="fills-60f9dde9-6139-8004-8004-4ad173acaed7"/></g></g></g><g transform="rotate(-.14 86.803 139.838)" class="text-container" id="shape-60f9dde9-6139-8004-8004-4ad173acaed5"><defs><pattern patternUnits="userSpaceOnUse" x="51.321" y="132.321" width="70.859" height="14" id="fill-0-render-24-0"><rect width="70.859" height="14" style="fill: rgb(0, 0, 0); fill-opacity: 0.8;"/></pattern></defs><text x="51.321" y="146.321" dominant-baseline="ideographic" textLength="70.859" lengthAdjust="spacingAndGlyphs" style="text-transform: none; font-family: Roboto; letter-spacing: normal; font-style: normal; font-weight: 300; white-space: pre; font-size: 12px; text-decoration: none solid rgba(0, 0, 0, 0.8); direction: ltr; fill: rgb(0, 0, 0); fill-opacity: 0.8;" class="fills" id="fills-60f9dde9-6139-8004-8004-4ad173acaed5">Github Profile</text></g></g></g><g id="shape-60f9dde9-6139-8004-8004-4ad199f3fa20"><g transform="rotate(-.14 41.662 74.933)" class="text-container" id="shape-60f9dde9-6139-8004-8004-4ad0966c8dd3"><defs><pattern patternUnits="userSpaceOnUse" x="22.172" y="67.425" width="38.797" height="14" id="fill-0-render-26-0"><rect width="38.797" height="14" style="fill: rgb(0, 0, 0); fill-opacity: 0.8;"/></pattern></defs><text x="22.172" y="81.425" dominant-baseline="ideographic" textLength="38.797" lengthAdjust="spacingAndGlyphs" style="text-transform: none; font-family: Roboto; letter-spacing: normal; font-style: normal; font-weight: 400; white-space: pre; font-size: 12px; text-decoration: none solid rgba(0, 0, 0, 0.8); direction: ltr; fill: rgb(0, 0, 0); fill-opacity: 0.8;" class="fills" id="fills-60f9dde9-6139-8004-8004-4ad0966c8dd3">Socials</text></g><g id="shape-60f9dde9-6139-8004-8004-4ad0ac36f107"><rect rx=".5" ry=".5" x="22.195" y="84.263" transform="rotate(-.14 112.185 84.782)" width="180" height="1" style="fill: rgb(218, 218, 218); fill-opacity: 1;" class="fills" id="fills-60f9dde9-6139-8004-8004-4ad0ac36f107"/></g><g id="shape-60f9dde9-6139-8004-8004-4ad1593ceec4"><g class="fills" id="fills-60f9dde9-6139-8004-8004-4ad1593ceec4"><rect rx="0" ry="0" x="185.171" y="67.077" width="15" height="15" transform="rotate(-.14 192.665 74.608)" class="frame-background"/></g><g class="frame-children"><g id="shape-60f9dde9-6139-8004-8004-4ad1593ceec6"><path d="M192.663 71.077a3.5 3.5 0 1 0 .017 7.001 3.5 3.5 0 0 0-.017-7.001Zm-2.99 3.507a2.999 2.999 0 1 1 5.998-.012 2.999 2.999 0 0 1-5.998.012Zm2.994-1.856a.263.263 0 0 1 .265.263l.003 1.321 1.321-.003a.265.265 0 0 1 .001.529l-1.321.003.003 1.321a.265.265 0 0 1-.528.001l-.003-1.321-1.321.003a.265.265 0 0 1-.002-.528l1.322-.003-.004-1.322c0-.146.118-.264.264-.264Z" fill-rule="evenodd" clip-rule="evenodd" style="fill: rgb(144, 227, 145); fill-opacity: 1;" class="fills" id="fills-60f9dde9-6139-8004-8004-4ad1593ceec6"/></g></g></g></g></g><g id="shape-60f9dde9-6139-8004-8004-4ad19eccc585"><g id="shape-60f9dde9-6139-8004-8004-4ad19eccc586"><g id="shape-60f9dde9-6139-8004-8004-4ad19eccc588"><g id="shape-60f9dde9-6139-8004-8004-4ad19eccc58a"><rect rx="2" ry="2" x="23.461" y="186.26" transform="rotate(-.14 113.434 200.282)" width="180" height="28" style="fill: rgb(229, 229, 229); fill-opacity: 1;" class="fills" id="fills-60f9dde9-6139-8004-8004-4ad19eccc58a"/></g><g id="shape-60f9dde9-6139-8004-8004-4ad19eccc58b"><g class="fills" id="fills-60f9dde9-6139-8004-8004-4ad19eccc58b"><rect rx="0" ry="0" x="28.462" y="193.439" width="15" height="15" transform="rotate(-.14 35.933 200.95)" class="frame-background"/></g><g class="frame-children"><g id="shape-60f9dde9-6139-8004-8004-4ad19eccc58e"><path d="M35.945 193.689a7.25 7.25 0 0 0-2.259 14.135c.363.065.495-.159.494-.351 0-.173-.007-.628-.012-1.233-2.016.443-2.445-.966-2.445-.966-.331-.837-.807-1.059-.807-1.059-.659-.448.049-.441.049-.441.727.05 1.112.745 1.112.745.649 1.106 1.699.784 2.111.597.065-.468.252-.788.458-.97-1.61-.18-3.304-.797-3.31-3.576a2.804 2.804 0 0 1 .741-1.947c-.075-.183-.325-.919.067-1.919 0 0 .608-.196 1.995.739a6.942 6.942 0 0 1 1.815-.248c.616.001 1.236.08 1.815.239 1.382-.941 1.99-.747 1.99-.747.398.997.151 1.735.077 1.918.466.506.748 1.152.75 1.944.006 2.785-1.688 3.402-3.302 3.585.261.224.494.665.495 1.342.002.969-.005 1.751-.004 1.989 0 .194.132.419.499.347a7.25 7.25 0 0 0-2.329-14.123Z" fill-rule="evenodd" clip-rule="evenodd" style="fill: rgb(25, 25, 25); fill-opacity: 1;" class="fills" id="fills-60f9dde9-6139-8004-8004-4ad19eccc58e"/></g></g></g><g transform="rotate(-.14 87.935 200.837)" class="text-container" id="shape-60f9dde9-6139-8004-8004-4ad19eccc58c"><defs><pattern patternUnits="userSpaceOnUse" x="52.462" y="193.319" width="70.859" height="14" id="fill-0-render-36-0"><rect width="70.859" height="14" style="fill: rgb(0, 0, 0); fill-opacity: 0.8;"/></pattern></defs><text x="52.462" y="207.319" dominant-baseline="ideographic" textLength="70.859" lengthAdjust="spacingAndGlyphs" style="text-transform: none; font-family: Roboto; letter-spacing: normal; font-style: normal; font-weight: 300; white-space: pre; font-size: 12px; text-decoration: none solid rgba(0, 0, 0, 0.8); direction: ltr; fill: rgb(0, 0, 0); fill-opacity: 0.8;" class="fills" id="fills-60f9dde9-6139-8004-8004-4ad19eccc58c">Github Profile</text></g></g><g id="shape-60f9dde9-6139-8004-8004-4ad19eccc589"><g id="shape-60f9dde9-6139-8004-8004-4ad19eccc58f"><rect rx="2" ry="2" x="23.539" y="220.26" transform="rotate(-.14 113.507 234.283)" width="180" height="28" style="fill: rgb(229, 229, 229); fill-opacity: 1;" class="fills" id="fills-60f9dde9-6139-8004-8004-4ad19eccc58f"/></g><g id="shape-60f9dde9-6139-8004-8004-4ad19eccc590"><g class="fills" id="fills-60f9dde9-6139-8004-8004-4ad19eccc590"><rect rx="0" ry="0" x="28.541" y="227.439" width="15" height="15" transform="rotate(-.14 36.007 234.95)" class="frame-background"/></g><g class="frame-children"><g id="shape-60f9dde9-6139-8004-8004-4ad19eccc593"><path d="M36.023 227.689a7.252 7.252 0 0 0-2.258 14.135c.363.065.494-.159.494-.351-.001-.173-.008-.628-.013-1.233-2.015.442-2.444-.967-2.444-.967-.332-.836-.808-1.058-.808-1.058-.659-.448.049-.441.049-.441.728.05 1.112.745 1.112.745.649 1.106 1.699.784 2.112.597.064-.468.251-.788.458-.97-1.611-.18-3.305-.797-3.311-3.576a2.8 2.8 0 0 1 .742-1.947c-.075-.183-.326-.919.067-1.919 0 0 .608-.196 1.995.739a6.94 6.94 0 0 1 1.814-.248c.616.001 1.236.08 1.816.239 1.382-.941 1.99-.747 1.99-.747.398.997.151 1.735.077 1.918.466.506.747 1.152.749 1.944.007 2.785-1.687 3.402-3.301 3.585.26.223.493.665.494 1.342.003.969-.004 1.751-.004 1.988.001.194.132.42.499.348a7.25 7.25 0 0 0-2.329-14.123Z" fill-rule="evenodd" clip-rule="evenodd" style="fill: rgb(25, 25, 25); fill-opacity: 1;" class="fills" id="fills-60f9dde9-6139-8004-8004-4ad19eccc593"/></g></g></g><g transform="rotate(-.14 88.008 234.838)" class="text-container" id="shape-60f9dde9-6139-8004-8004-4ad19eccc591"><defs><pattern patternUnits="userSpaceOnUse" x="52.541" y="227.319" width="70.859" height="14" id="fill-0-render-41-0"><rect width="70.859" height="14" style="fill: rgb(0, 0, 0); fill-opacity: 0.8;"/></pattern></defs><text x="52.541" y="241.319" dominant-baseline="ideographic" textLength="70.859" lengthAdjust="spacingAndGlyphs" style="text-transform: none; font-family: Roboto; letter-spacing: normal; font-style: normal; font-weight: 300; white-space: pre; font-size: 12px; text-decoration: none solid rgba(0, 0, 0, 0.8); direction: ltr; fill: rgb(0, 0, 0); fill-opacity: 0.8;" class="fills" id="fills-60f9dde9-6139-8004-8004-4ad19eccc591">Github Profile</text></g></g></g><g id="shape-60f9dde9-6139-8004-8004-4ad19eccc587"><g transform="rotate(-.14 53.367 169.91)" class="text-container" id="shape-60f9dde9-6139-8004-8004-4ad19eccc594"><defs><pattern patternUnits="userSpaceOnUse" x="23.391" y="162.398" width="59.063" height="14" id="fill-0-render-43-0"><rect width="59.063" height="14" style="fill: rgb(0, 0, 0); fill-opacity: 0.8;"/></pattern></defs><text x="23.391" y="176.398" dominant-baseline="ideographic" textLength="59.063" lengthAdjust="spacingAndGlyphs" style="text-transform: none; font-family: Roboto; letter-spacing: normal; font-style: normal; font-weight: 400; white-space: pre; font-size: 12px; text-decoration: none solid rgba(0, 0, 0, 0.8); direction: ltr; fill: rgb(0, 0, 0); fill-opacity: 0.8;" class="fills" id="fills-60f9dde9-6139-8004-8004-4ad19eccc594">Useful Link</text></g><g id="shape-60f9dde9-6139-8004-8004-4ad19eccc595"><rect rx=".5" ry=".5" x="23.414" y="179.26" transform="rotate(-.14 113.39 179.782)" width="180" height="1" style="fill: rgb(218, 218, 218); fill-opacity: 1;" class="fills" id="fills-60f9dde9-6139-8004-8004-4ad19eccc595"/></g><g id="shape-60f9dde9-6139-8004-8004-4ad19eccc596"><g class="fills" id="fills-60f9dde9-6139-8004-8004-4ad19eccc596"><rect rx="0" ry="0" x="186.39" y="162.074" width="15" height="15" transform="rotate(-.14 193.87 169.608)" class="frame-background"/></g><g class="frame-children"><g id="shape-60f9dde9-6139-8004-8004-4ad19eccc598"><path d="M193.882 166.075a3.5 3.5 0 1 0 .016 7 3.5 3.5 0 0 0-.016-7Zm-2.99 3.506a2.998 2.998 0 1 1 5.996-.012 2.998 2.998 0 0 1-5.996.012Zm2.994-1.856c.146 0 .265.118.265.264l.003 1.321 1.321-.003a.265.265 0 0 1 .001.528l-1.321.003.003 1.321a.263.263 0 0 1-.263.265.263.263 0 0 1-.265-.263l-.003-1.322-1.321.004a.265.265 0 0 1-.002-.529l1.322-.003-.003-1.321a.263.263 0 0 1 .263-.265Z" fill-rule="evenodd" clip-rule="evenodd" style="fill: rgb(144, 227, 145); fill-opacity: 1;" class="fills" id="fills-60f9dde9-6139-8004-8004-4ad19eccc598"/></g></g></g></g></g></g></g><g id="shape-60f9dde9-6139-8004-8004-4ad44422ae65"><g id="shape-60f9dde9-6139-8004-8004-4ad4259aed58"><g id="shape-60f9dde9-6139-8004-8004-4ad207979dae"><rect rx="5" ry="5" x="215.306" y="181.26" width="61" height="54" style="fill: rgb(107, 182, 175); fill-opacity: 1;" class="fills" id="fills-60f9dde9-6139-8004-8004-4ad207979dae"/></g></g></g><g id="shape-60f9dde9-6139-8004-8004-4ad428dc3d79"><g id="shape-60f9dde9-6139-8004-8004-4ad1fb26e4c7"><rect rx="5" ry="5" x="133.306" y="254.26" width="61" height="54" style="fill: rgb(105, 191, 100); fill-opacity: 1;" class="fills" id="fills-60f9dde9-6139-8004-8004-4ad1fb26e4c7"/></g><g id="shape-60f9dde9-6139-8004-8004-4ad2706408a4"><g class="fills" id="fills-60f9dde9-6139-8004-8004-4ad2706408a4"><rect rx="0" ry="0" x="156.306" y="274.26" width="15" height="15" class="frame-background"/></g><g class="frame-children"><g id="shape-60f9dde9-6139-8004-8004-4ad2706408a6"><path d="m163.232 273.827 1.628-1.686c1.311-1.358 3.611-2.301 5.897-2.639 1.126-.166 2.191-.177 3.06-.042.9.14 1.452.413 1.71.679.257.267.521.838.655 1.77.131.901.121 2.004-.04 3.17-.327 2.367-1.237 4.75-2.548 6.108l-9.046 9.369-2.333-2.416a.993.993 0 0 0-1.438 0 1.079 1.079 0 0 0 0 1.49l3.051 3.161a.994.994 0 0 0 1.439 0l1.113-1.153 2.381 4.111a.996.996 0 0 0 1.592.203l4.069-4.215c.226-.234.333-.565.288-.894l-.946-6.853 1.268-1.313c1.741-1.803 2.763-4.689 3.124-7.3.182-1.322.204-2.636.038-3.78-.161-1.112-.52-2.214-1.229-2.948-.709-.734-1.772-1.106-2.846-1.273-1.105-.171-2.373-.149-3.65.04-2.521.373-5.307 1.433-7.048 3.235l-1.267 1.313-6.618-.979a.997.997 0 0 0-.863.298l-4.069 4.215a1.077 1.077 0 0 0 .196 1.648l3.969 2.466-1.113 1.153a1.074 1.074 0 0 0-.298.745c0 .28.107.548.298.745l3.052 3.161a.993.993 0 0 0 1.438 0 1.079 1.079 0 0 0 0-1.49l-2.332-2.416 1.315-1.362 6.103-6.321Zm6.604 19.68-1.973-3.405 4.103-4.25.658 4.768-2.788 2.887Zm-13.584-15.43 4.103-4.25-4.603-.681-2.788 2.887 3.288 2.044Zm-2.175 9.446a1.079 1.079 0 0 0 0-1.49.993.993 0 0 0-1.438 0l-2.035 2.107a1.08 1.08 0 0 0 0 1.49.992.992 0 0 0 1.439 0l2.034-2.107Zm3.052 3.161a1.08 1.08 0 0 0 0-1.49.991.991 0 0 0-1.438 0l-4.069 4.214a1.079 1.079 0 0 0 0 1.49.993.993 0 0 0 1.438 0l4.069-4.214Zm3.052 3.16a1.08 1.08 0 0 0 0-1.49.994.994 0 0 0-1.439 0l-2.034 2.108a1.078 1.078 0 0 0 0 1.489.991.991 0 0 0 1.438 0l2.035-2.107Zm8.435-13.917c1.404 0 2.541-1.178 2.541-2.631 0-1.453-1.137-2.631-2.541-2.631-1.403 0-2.54 1.178-2.54 2.631 0 1.453 1.137 2.631 2.54 2.631Z" fill-rule="evenodd" clip-rule="evenodd" style="fill: rgb(255, 255, 255); fill-opacity: 1;" class="fills" id="fills-60f9dde9-6139-8004-8004-4ad2706408a6"/></g></g></g></g><g id="shape-60f9dde9-6139-8004-8004-4ad2b5fb5429"><g class="fills" id="fills-60f9dde9-6139-8004-8004-4ad2b5fb5429"><rect rx="0" ry="0" x="238.306" y="204.26" width="15" height="15" class="frame-background"/></g><g class="frame-children"><g id="shape-60f9dde9-6139-8004-8004-4ad2b5fb542b"><path d="M235.412 206.76c0-6.335 5.325-11.47 11.894-11.47 6.57 0 11.895 5.135 11.895 11.47 0 6.335-5.325 11.47-11.895 11.47-6.569 0-11.894-5.135-11.894-11.47Zm11.894-13.5c-7.732 0-14 6.044-14 13.5s6.268 13.5 14 13.5 14-6.044 14-13.5-6.268-13.5-14-13.5Zm-1.052 14.514v-9.889a9.607 9.607 0 0 1 1.052-.057c5.116 0 9.264 3.999 9.264 8.932 0 .343-.02.681-.059 1.014h-10.257Z" fill-rule="evenodd" clip-rule="evenodd" style="fill: rgb(255, 255, 255); fill-opacity: 1;" class="fills" id="fills-60f9dde9-6139-8004-8004-4ad2b5fb542b"/></g></g></g><g id="shape-60f9dde9-6139-8004-8004-4ad422a85eae"><g id="shape-60f9dde9-6139-8004-8004-4ad20e0dff5e"><rect rx="5" ry="5" x="215.306" y="254.26" width="61" height="54" style="fill: rgb(112, 144, 245); fill-opacity: 1;" class="fills" id="fills-60f9dde9-6139-8004-8004-4ad20e0dff5e"/></g><g id="shape-60f9dde9-6139-8004-8004-4ad2f9bae33d"><g class="fills" id="fills-60f9dde9-6139-8004-8004-4ad2f9bae33d"><rect rx="0" ry="0" x="238.306" y="266.26" width="15" height="15" class="frame-background"/></g><g class="frame-children"><g id="shape-60f9dde9-6139-8004-8004-4ad2f9bae33f"><path d="M232.306 275.773c0-4.145 3.478-7.513 7.776-7.513 2.996 0 4.32 1.207 5.724 3.348 1.405-2.141 2.729-3.348 5.724-3.348 4.299 0 7.776 3.368 7.776 7.513 0 3.881-2.297 7.613-4.934 10.709-2.497 2.933-5.443 5.459-7.454 7.184l-.381.326a1.13 1.13 0 0 1-1.462 0l-.38-.326c-2.011-1.725-4.958-4.251-7.455-7.184-2.636-3.096-4.934-6.828-4.934-10.709Z" fill-rule="evenodd" clip-rule="evenodd" style="fill: rgb(255, 255, 255); fill-opacity: 1;" class="fills" id="fills-60f9dde9-6139-8004-8004-4ad2f9bae33f"/></g></g></g></g></g></g></g></g></svg>